<?xml version="1.0" encoding="iso-8859-1"?>
<!-- Generator: Adobe Illustrator 19.0.0, SVG Export Plug-In . SVG Version: 6.00 Build 0)  -->
<svg xmlns="http://www.w3.org/2000/svg" xmlns:xlink="http://www.w3.org/1999/xlink" version="1.1" id="Layer_1" x="0px" y="0px" viewBox="0 0 512 512" style="enable-background:new 0 0 512 512;" xml:space="preserve" width="512px" height="512px">
<g>
	<g>
		<path d="M276.936,246.891c-3.898-4.253-10.509-4.541-14.763-0.642l-0.049,0.045c-4.254,3.9-4.517,10.487-0.618,14.74    c2.056,2.242,4.87,3.376,7.697,3.376c2.535,0,5.079-0.913,7.092-2.756C280.548,257.755,280.836,251.145,276.936,246.891z" fill="#FFFFFF"/>
	</g>
</g>
<g>
	<g>
		<path d="M456.621,235.416c-5.771,0-10.449,4.678-10.449,10.449v0.137c0,5.771,4.678,10.449,10.449,10.449    c5.771,0,10.449-4.678,10.449-10.449v-0.137C467.07,240.094,462.392,235.416,456.621,235.416z" fill="#FFFFFF"/>
	</g>
</g>
<g>
	<g>
		<path d="M505.009,29.154c-2.587-0.907-5.353-0.741-7.744,0.334l-0.001-0.002L6.162,250.455c-3.916,1.763-6.355,5.74-6.15,10.029    c0.206,4.288,3.013,8.015,7.08,9.395L187.2,330.987l60.979,146.024c1.648,3.947,5.491,6.423,9.637,6.423    c0.68,0,1.37-0.067,2.057-0.205c3.273-0.656,5.924-2.802,7.321-5.643c0.002,0.001,0.004,0.001,0.007,0.001l50.291-102.482    l180.697,61.393c1.096,0.373,2.231,0.556,3.36,0.556c2.156,0,4.288-0.667,6.087-1.955c2.739-1.962,4.363-5.125,4.363-8.494V39.015    C512,34.577,509.197,30.623,505.009,29.154z M249.661,337.271c-1.481,1.853-2.288,4.155-2.288,6.526v77.05l-39.892-95.529    l46.207-42.75c4.236-3.918,4.493-10.53,0.574-14.765c-3.919-4.236-10.53-4.494-14.765-0.574l-47.003,43.486L38.949,258.619    L447.488,74.799L286.106,224.106c-4.236,3.918-4.493,10.531-0.574,14.765c3.919,4.236,10.53,4.493,14.765,0.574l106.065-98.13    L249.661,337.271z M268.271,427.974v-69.592l29.271,9.945L268.271,427.974z M491.103,412.021l-24.033-8.165v-124.05    c0-5.771-4.678-10.449-10.449-10.449c-5.771,0-10.449,4.678-10.449,10.449v116.949l-170.89-58.061L491.103,68.812V412.021z" fill="#FFFFFF"/>
	</g>
</g>
<g>
</g>
<g>
</g>
<g>
</g>
<g>
</g>
<g>
</g>
<g>
</g>
<g>
</g>
<g>
</g>
<g>
</g>
<g>
</g>
<g>
</g>
<g>
</g>
<g>
</g>
<g>
</g>
<g>
</g>
</svg>
